<?xml version="1.0" encoding="iso-8859-1"?>
<!-- Generator: Adobe Illustrator 16.0.0, SVG Export Plug-In . SVG Version: 6.00 Build 0)  -->
<!DOCTYPE svg PUBLIC "-//W3C//DTD SVG 1.1//EN" "http://www.w3.org/Graphics/SVG/1.1/DTD/svg11.dtd">
<svg version="1.1" id="Capa_1" xmlns="http://www.w3.org/2000/svg" xmlns:xlink="http://www.w3.org/1999/xlink" x="0px" y="0px"
	 width="367.043px" height="367.043px" viewBox="0 0 367.043 367.043" style="enable-background:new 0 0 367.043 367.043;"
	 xml:space="preserve">
<g>
	<g>
		<path d="M344.041,105.519h-57.267l-83.372-83.372c0.076-0.706,0.119-1.421,0.119-2.147c0-11.045-8.954-20-20-20s-20,8.955-20,20
			c0,0.726,0.043,1.441,0.119,2.147l-83.372,83.372H23.001c-5.236,0-9.48,4.246-9.48,9.48v242.563c0,5.236,4.244,9.48,9.48,9.48
			h321.04c5.236,0,9.48-4.244,9.48-9.48V115C353.521,109.765,349.277,105.519,344.041,105.519z M175.674,38.398
			c2.41,1.029,5.061,1.602,7.847,1.602s5.438-0.572,7.848-1.602l67.12,67.121H108.554L175.674,38.398z M314.654,316.662
			c0,5.236-4.244,9.48-9.479,9.48H61.869c-5.237,0-9.48-4.244-9.48-9.48v-160.76c0-5.236,4.244-9.48,9.48-9.48h243.306
			c5.236,0,9.479,4.244,9.479,9.48V316.662L314.654,316.662z" fill="#429bfc"/>
		<path d="M243.716,179.767c-1.009,0.859-2.004,1.724-2.996,2.593c0,0.001-0.001,0.001-0.001,0.001
			c-10.124,8.739-20.562,17.448-31.581,25.497c-1.918-3.426-6.56-5.084-10.88-2.172c-0.129,0.088-2.102,1.432-2.775,1.836
			c-1.836,1.104-3.766,2.056-5.691,2.987c-0.187,0.091-0.377,0.175-0.565,0.263c3.487-3.744,6.978-7.488,10.466-11.234
			c5.084-5.456-1.447-14.574-8.105-10.504c-5.34,3.265-10.849,6.271-16.41,9.145c-8.272,4.27-18.732,9.704-27.478,10.454
			c-8.527,0.729-8.599,14.112,0,13.376c5.713-0.49,11.268-2.07,16.659-4.15c-1.48,1.59-2.963,3.181-4.445,4.771
			c-3.688,3.959-1.234,10.771,3.639,11.459c-14.147,5.81-29.403,9.874-46.143,11.345c-4.423,0.387-7.695,4.291-7.307,8.715
			c0.367,4.186,3.879,7.34,8.002,7.34c0.235,0,0.474-0.012,0.714-0.031c8.195-0.721,16.25-2.014,24.21-3.885
			c-14.797,10.369-26.087,18.336-26.335,18.512c-3.466,2.445-4.435,7.164-2.215,10.777c2.22,3.617,6.867,4.885,10.615,2.9
			l85.481-45.254c-7.37,9.123-14.497,18.564-18.94,25.967c-1.715,2.862-1.486,6.488,0.578,9.111
			c2.062,2.623,5.531,3.697,8.718,2.702c3.101-0.97,6.559-2.495,10.087-4.296l-2.645,4.808c-1.469,2.67-1.302,5.94,0.432,8.449
			c1.515,2.19,3.998,3.469,6.613,3.469c0.377,0,0.758-0.026,1.139-0.081c0.71-0.102,17.49-2.513,26.712-5.027
			c4.285-1.168,6.812-5.59,5.642-9.875c-1.167-4.285-5.588-6.812-9.874-5.643c-2.379,0.648-5.43,1.305-8.571,1.911l9.693-17.618
			c1.821-3.314,1.09-7.447-1.757-9.934c-2.728-2.383-6.694-2.637-9.696-0.672c11.101-13.312,21.417-24.637,21.604-24.84
			c2.636-2.889,2.814-7.254,0.42-10.347c-2.396-3.092-6.666-4.012-10.121-2.185l-13.314,7.049c2.922-2.648,5.412-5.172,8.124-7.914
			c3.979-4.029,8.487-8.594,15.852-15.038c0.984-0.849,1.962-1.696,2.932-2.536c3.346-2.898,3.72-7.959,0.833-11.318
			C252.145,177.289,247.087,176.896,243.716,179.767z" fill="#429bfc"/>
	</g>
</g>
<g>
</g>
<g>
</g>
<g>
</g>
<g>
</g>
<g>
</g>
<g>
</g>
<g>
</g>
<g>
</g>
<g>
</g>
<g>
</g>
<g>
</g>
<g>
</g>
<g>
</g>
<g>
</g>
<g>
</g>
</svg>
